<?xml version="1.0" standalone="no"?>
<!DOCTYPE svg PUBLIC "-//W3C//DTD SVG 20010904//EN"
 "http://www.w3.org/TR/2001/REC-SVG-20010904/DTD/svg10.dtd">
<svg version="1.0" xmlns="http://www.w3.org/2000/svg"
 width="512.000000pt" height="512.000000pt" viewBox="0 0 512.000000 512.000000"
 preserveAspectRatio="xMidYMid meet">

<g transform="translate(0.000000,512.000000) scale(0.100000,-0.100000)"
fill="#000000" stroke="none">
<path d="M1823 5026 c-72 -24 -160 -92 -190 -149 -8 -15 -25 -18 -104 -20 -76
-2 -103 -7 -137 -26 -66 -34 -128 -97 -159 -160 -24 -48 -28 -68 -28 -141 0
-78 3 -92 38 -165 l38 -80 -108 -110 c-82 -83 -120 -132 -157 -199 -27 -48
-54 -89 -60 -90 -103 -23 -284 -109 -395 -187 -73 -51 -89 -77 -77 -124 8 -30
101 -98 223 -163 l89 -47 -13 -50 c-89 -332 -77 -717 31 -1050 l33 -101 -70
-11 c-281 -44 -536 -377 -602 -786 -27 -169 -16 -315 36 -471 41 -125 98 -217
189 -307 172 -171 410 -230 631 -156 l74 25 14 -22 c7 -11 47 -53 87 -93 116
-114 280 -183 434 -183 121 0 268 50 371 126 l49 36 73 -69 c246 -229 608
-229 853 0 l74 69 49 -36 c103 -76 250 -126 371 -126 154 0 318 69 434 183 40
40 80 82 87 93 l14 22 74 -25 c221 -74 459 -15 631 156 229 227 299 587 185
951 -106 336 -322 573 -562 613 l-70 12 19 55 c56 165 95 371 104 561 l7 127
-26 26 -26 26 -180 0 -180 0 -21 46 c-11 26 -20 48 -20 49 0 2 25 17 55 34
217 122 199 448 -30 561 l-50 25 -522 0 -523 0 -9 25 c-6 14 -22 57 -36 95
-52 140 -138 276 -247 389 -27 28 -48 53 -48 57 0 4 21 51 48 105 45 94 47
103 47 184 0 73 -4 93 -28 141 -31 63 -93 126 -159 160 -34 19 -62 24 -137 26
-91 2 -94 3 -111 30 -26 43 -97 103 -149 126 -58 25 -170 32 -228 13z m275
-736 c275 -78 489 -282 591 -564 l39 -107 -42 -21 c-258 -131 -423 -381 -443
-670 -24 -344 195 -679 519 -796 133 -48 200 -54 538 -50 l305 3 64 35 c147
79 212 266 142 410 -11 24 -21 45 -21 47 0 1 18 12 40 23 56 29 109 85 137
147 l24 53 125 0 c68 0 124 -3 124 -7 0 -5 -5 -51 -10 -103 -18 -173 -57 -334
-121 -501 -28 -72 -32 -78 -99 -123 -75 -51 -160 -137 -206 -208 l-29 -45 -44
29 c-230 145 -498 76 -690 -177 l-47 -63 -68 69 c-96 97 -252 169 -366 169
-114 0 -270 -72 -366 -169 l-68 -68 -43 58 c-129 172 -310 270 -473 256 -75
-6 -156 -34 -222 -76 l-47 -30 -27 46 c-35 60 -144 169 -219 220 -59 40 -61
42 -98 142 -130 353 -150 716 -58 1056 l11 40 57 1 c145 3 273 136 273 284 0
77 -28 140 -91 203 l-59 59 55 83 c118 178 317 315 515 354 30 6 64 13 75 15
48 12 253 -4 323 -24z m-1032 -587 c26 -16 54 -71 54 -103 0 -32 -28 -87 -53
-103 -42 -27 -74 -28 -139 -6 -72 25 -218 97 -218 109 0 11 136 80 210 107 68
24 106 23 146 -4z m2838 -197 c18 -8 46 -31 62 -52 24 -31 29 -47 29 -95 0
-62 -17 -94 -69 -133 -23 -18 -47 -22 -158 -26 -121 -5 -131 -7 -149 -29 -42
-51 -5 -131 61 -131 48 0 95 -24 126 -66 24 -31 29 -47 29 -95 0 -62 -17 -94
-69 -133 -23 -18 -47 -22 -158 -26 -121 -5 -131 -7 -149 -29 -42 -51 -5 -131
61 -131 48 0 95 -24 126 -66 24 -31 29 -47 29 -95 0 -62 -17 -94 -69 -133 -26
-20 -42 -21 -325 -24 -347 -3 -398 3 -531 70 -211 106 -350 331 -350 568 0
237 141 465 350 569 137 67 157 69 668 70 366 1 459 -2 486 -13z m-2928 -1546
c69 -34 171 -133 217 -213 l28 -47 -55 -84 c-103 -155 -170 -327 -197 -506
-18 -125 -7 -305 25 -414 30 -98 29 -98 -34 -115 -167 -45 -334 3 -456 131
-72 75 -106 130 -139 228 -71 208 -49 458 61 689 146 310 346 430 550 331z
m3440 0 c117 -57 232 -206 307 -395 85 -215 96 -436 32 -626 -95 -283 -363
-437 -616 -354 l-45 15 22 68 c63 188 58 426 -15 650 -36 111 -76 191 -148
300 l-55 83 27 44 c14 25 54 75 87 111 133 142 261 175 404 104z m-795 -241
c244 -130 422 -569 365 -898 -58 -331 -307 -542 -581 -492 -73 13 -190 69
-228 109 l-28 29 24 61 c50 122 62 188 62 342 0 195 -30 333 -111 509 l-34 73
44 67 c73 113 188 208 281 232 56 15 143 1 206 -32z m-924 -78 c154 -82 283
-277 351 -530 21 -81 25 -118 25 -236 0 -120 -3 -151 -24 -220 -87 -283 -315
-449 -561 -407 -197 34 -348 182 -417 407 -21 69 -24 100 -24 220 0 118 4 155
25 236 34 127 79 231 136 317 150 227 322 302 489 213z"/>
<path d="M1465 3895 c-48 -47 -26 -145 50 -220 73 -74 151 -92 248 -59 117 40
199 213 132 279 -49 50 -135 15 -135 -55 0 -41 -39 -80 -80 -80 -41 0 -80 39
-80 80 0 41 -39 80 -80 80 -19 0 -40 -9 -55 -25z"/>
</g>
</svg>
