<?xml version="1.0" standalone="no"?>
<!DOCTYPE svg PUBLIC "-//W3C//DTD SVG 20010904//EN"
 "http://www.w3.org/TR/2001/REC-SVG-20010904/DTD/svg10.dtd">
<svg version="1.0" xmlns="http://www.w3.org/2000/svg"
 width="512.000000pt" height="512.000000pt" viewBox="0 0 512.000000 512.000000"
 preserveAspectRatio="xMidYMid meet">

<g transform="translate(0.000000,512.000000) scale(0.100000,-0.100000)"
fill="#000000" stroke="none">
<path d="M1450 5101 c-51 -27 -93 -88 -119 -172 -39 -131 -54 -163 -87 -196
-56 -57 -121 -40 -197 51 -132 159 -299 122 -315 -69 -14 -178 97 -397 255
-506 l45 -31 -48 -49 -48 -49 -426 0 c-452 0 -470 -2 -456 -46 3 -11 154 -113
366 -247 l360 -228 0 -154 c0 -278 -28 -455 -111 -714 -43 -131 -50 -163 -44
-201 9 -64 9 -74 -5 -185 -28 -223 19 -494 121 -697 76 -152 243 -359 349
-433 22 -15 40 -32 40 -36 0 -5 -22 -9 -49 -9 -121 0 -144 -25 -87 -95 20 -24
36 -45 36 -48 0 -2 -35 6 -78 19 -109 31 -253 47 -325 35 -111 -19 -168 -70
-175 -156 -4 -44 -1 -55 23 -83 15 -18 25 -32 23 -32 -2 0 -54 -7 -116 -15
-154 -20 -212 -47 -248 -117 -18 -36 -18 -98 1 -125 15 -21 14 -23 -14 -37
-43 -23 -97 -91 -111 -142 -26 -91 30 -178 133 -209 87 -26 711 -72 1302 -95
1002 -39 2943 -39 3192 0 251 40 356 259 198 413 -20 20 -57 44 -82 53 l-44
17 37 30 c70 58 103 173 70 251 -26 63 -127 99 -336 120 l-115 11 56 32 c70
39 119 94 119 133 0 66 -38 103 -117 116 -69 11 -356 -27 -464 -61 -9 -3 52
64 135 149 141 144 157 157 239 196 49 23 102 54 118 67 47 40 73 99 73 170
l1 63 58 0 c109 0 177 58 177 152 0 62 -14 95 -57 140 -26 26 -32 38 -22 41 8
2 54 14 104 26 102 24 156 55 175 100 30 73 -21 133 -155 182 -29 10 -27 12
81 53 117 45 157 68 198 116 53 64 38 153 -34 195 -31 18 -51 20 -166 18 -139
-1 -280 -21 -369 -51 l-55 -19 -10 33 c-7 21 -25 42 -48 56 -35 22 -47 23
-197 23 -184 -1 -238 -7 -624 -81 -392 -75 -506 -88 -716 -81 -172 6 -242 17
-362 59 -57 20 -62 24 -68 57 -4 20 -39 98 -78 174 l-72 139 3 146 c7 345 -72
592 -249 787 l-49 52 107 89 c59 49 118 104 130 123 33 49 31 102 -6 143 -29
33 -30 33 -123 33 -51 0 -99 4 -105 8 -24 15 -13 67 27 134 32 53 40 77 40
114 0 88 -71 137 -157 109 -26 -9 -64 -40 -119 -97 -70 -73 -85 -84 -110 -81
-18 2 -34 12 -44 30 -13 25 -13 36 3 111 31 154 18 228 -52 274 -41 28 -85 29
-131 4z m215 -883 c203 -66 396 -256 476 -467 53 -141 61 -196 68 -433 l6
-227 73 -141 c102 -196 106 -261 23 -317 -19 -13 -43 -23 -53 -23 -18 0 -18 2
-4 22 20 28 20 62 2 77 -8 7 -65 25 -127 40 l-113 28 -27 56 c-31 66 -46 87
-65 87 -18 0 -46 -30 -41 -44 2 -6 8 -21 12 -34 l7 -23 -44 22 c-177 90 -327
243 -414 424 -60 124 -85 224 -91 373 -5 106 -4 122 10 122 9 0 25 12 37 27
23 29 21 64 -6 94 -8 8 -14 22 -14 30 1 33 70 192 114 263 54 87 46 85 171 44z
m-785 -218 c0 -6 -9 -28 -19 -48 -27 -53 -52 -143 -65 -234 l-11 -77 -177 112
c-97 62 -175 113 -174 115 2 1 27 -2 56 -8 69 -13 226 -13 251 0 21 12 25 45
7 57 -7 4 -62 8 -123 9 -117 2 -214 21 -300 60 l-50 22 303 1 c203 1 302 -2
302 -9z m2834 -2770 c19 -7 26 -17 26 -36 0 -21 -24 -50 -110 -133 -60 -59
-110 -114 -110 -123 0 -8 6 -21 14 -27 10 -9 41 2 137 48 211 101 393 151 621
172 114 11 130 10 153 -5 51 -33 36 -49 -157 -166 -154 -93 -172 -110 -146
-136 15 -15 20 -15 69 1 71 24 293 24 396 1 141 -31 163 -51 150 -132 -13 -79
-81 -132 -207 -160 -76 -18 -100 -35 -83 -62 8 -14 28 -17 109 -18 80 0 108
-4 144 -21 58 -28 73 -40 99 -83 38 -64 23 -129 -43 -187 -83 -74 -174 -82
-1021 -89 -965 -9 -2118 12 -2805 51 -569 33 -773 53 -825 83 -95 56 -52 176
84 234 73 31 77 47 21 83 -44 28 -51 55 -24 93 25 36 69 52 182 66 59 8 126
22 149 31 39 16 103 74 103 94 0 19 -30 33 -60 26 -85 -19 -78 94 8 126 73 28
275 4 439 -52 95 -32 123 -35 141 -17 18 18 17 21 -44 95 l-56 68 78 3 c154 6
313 -34 471 -119 148 -79 162 -47 48 106 -41 55 -74 103 -75 106 0 11 127 -13
220 -43 127 -41 252 -96 392 -173 64 -36 126 -65 138 -65 24 0 26 23 5 73 -26
62 15 111 74 92 12 -3 37 -31 56 -60 59 -93 100 -93 295 5 262 131 454 206
618 240 95 20 284 26 326 10z"/>
<path d="M3122 922 c-163 -65 -340 -288 -392 -496 -23 -90 -19 -116 15 -116
30 0 31 3 55 95 46 180 156 333 305 427 168 105 146 -47 -40 -267 -57 -68 -75
-96 -73 -115 7 -57 57 -30 140 75 60 76 172 161 283 216 95 46 195 73 195 52
0 -23 -173 -180 -265 -241 -117 -77 -128 -88 -114 -113 14 -27 29 -24 117 20
166 83 376 150 471 151 l24 0 -24 -18 c-45 -35 -121 -75 -192 -101 -76 -28
-95 -53 -62 -81 14 -11 29 -9 98 14 139 47 335 46 462 -4 l30 -12 -25 -20
c-45 -37 -144 -77 -225 -90 -79 -13 -80 -14 -80 -43 0 -27 3 -30 36 -33 55 -5
164 24 238 63 81 43 161 110 161 136 0 39 -166 97 -304 106 l-89 6 52 44 c55
48 64 76 29 94 -31 17 -227 5 -310 -19 l-67 -19 42 50 c23 27 52 61 64 76 29
34 29 55 -3 80 -61 48 -152 36 -299 -37 l-93 -47 5 56 c7 67 -6 96 -52 115
-43 18 -59 17 -113 -4z"/>
<path d="M1775 833 c-62 -15 -146 -139 -160 -237 l-7 -43 -44 47 c-123 132
-238 160 -312 76 -44 -51 -50 -108 -17 -188 6 -15 3 -15 -42 -2 -79 25 -208
29 -283 10 -118 -30 -140 -59 -89 -113 71 -73 196 -143 301 -168 73 -17 230
-20 259 -5 21 12 26 45 7 56 -7 4 -49 7 -93 5 -48 -1 -110 4 -150 14 -70 16
-178 68 -229 109 l-29 24 59 12 c101 21 234 -4 383 -71 74 -34 97 -36 110 -10
12 22 5 32 -63 86 -59 47 -86 89 -86 135 0 157 196 67 309 -143 31 -58 39 -67
61 -65 l25 3 0 121 c0 118 1 122 35 190 39 76 76 102 106 73 27 -28 38 -150
25 -272 -11 -93 -11 -111 1 -124 23 -23 45 -5 69 55 40 101 76 166 119 215 40
45 111 92 130 85 23 -9 -65 -251 -121 -329 -45 -64 7 -110 54 -47 82 109 174
390 145 442 -27 49 -173 -8 -260 -102 l-56 -61 -7 52 c-16 119 -76 187 -150
170z"/>
</g>
</svg>
