<?xml version="1.0" standalone="no"?>
<!DOCTYPE svg PUBLIC "-//W3C//DTD SVG 20010904//EN"
 "http://www.w3.org/TR/2001/REC-SVG-20010904/DTD/svg10.dtd">
<svg version="1.0" xmlns="http://www.w3.org/2000/svg"
 width="512.000000pt" height="512.000000pt" viewBox="0 0 512.000000 512.000000"
 preserveAspectRatio="xMidYMid meet">

<g transform="translate(0.000000,512.000000) scale(0.100000,-0.100000)"
fill="#000000" stroke="none">
<path d="M2480 5111 c-134 -44 -224 -152 -253 -302 l-12 -64 -86 0 c-78 0 -90
-3 -135 -30 -30 -19 -60 -49 -79 -79 -27 -44 -30 -58 -30 -130 0 -64 5 -90 23
-123 12 -23 22 -44 22 -46 0 -2 -26 -10 -57 -17 -225 -50 -461 -177 -619 -334
-215 -215 -328 -482 -351 -830 -6 -98 -7 -102 -45 -150 -98 -124 -158 -319
-158 -516 0 -162 57 -388 126 -501 l35 -58 -46 -135 c-52 -153 -83 -299 -92
-434 -4 -69 -9 -92 -20 -92 -23 0 -87 -37 -115 -67 -59 -61 -87 -191 -59 -266
8 -21 6 -26 -14 -35 -39 -18 -105 -83 -128 -126 -30 -57 -30 -165 0 -221 25
-46 75 -96 119 -118 17 -9 102 -35 190 -58 l159 -42 50 -55 c62 -69 129 -102
206 -102 103 0 172 38 217 121 21 39 31 49 47 45 11 -3 72 -21 135 -39 63 -19
174 -45 245 -58 l130 -23 65 -59 c161 -146 317 -195 446 -141 49 20 117 85
140 134 10 22 22 40 25 40 3 0 13 -16 22 -35 9 -19 32 -52 52 -74 125 -138
331 -109 535 76 l65 59 130 23 c108 19 190 40 387 98 10 3 18 -3 22 -15 27
-84 127 -152 225 -152 91 0 129 17 201 90 l65 66 145 38 c80 21 165 47 190 57
55 24 105 71 133 124 30 56 30 164 0 221 -23 43 -89 108 -128 126 -20 9 -22
14 -14 35 28 75 0 205 -59 266 -29 30 -92 67 -115 67 -11 0 -16 25 -21 103 -9
133 -36 262 -91 423 l-44 130 48 96 c138 274 146 620 22 873 -22 44 -56 99
-75 122 -30 34 -36 49 -36 87 0 77 -29 266 -55 366 -33 122 -118 296 -195 398
-110 146 -276 280 -444 357 -86 40 -238 92 -297 101 -21 4 -39 8 -39 11 0 2 9
22 21 45 12 23 23 67 26 97 10 105 -28 184 -111 235 -40 25 -63 31 -129 36
l-80 5 -13 63 c-26 125 -84 208 -185 262 -53 28 -76 34 -139 37 -41 1 -86 -1
-100 -6z m-180 -886 c81 -34 87 -40 152 -149 29 -49 66 -98 81 -109 l27 -21
27 20 c15 12 53 63 84 114 60 101 71 111 158 148 79 35 112 36 242 13 512 -92
822 -332 960 -742 39 -117 57 -214 69 -367 l10 -123 44 -51 c95 -109 136 -231
143 -423 8 -218 -35 -398 -127 -529 -22 -31 -40 -62 -40 -69 0 -7 14 -46 31
-87 82 -202 123 -406 118 -589 l-4 -119 23 9 c67 25 143 -7 176 -74 25 -51 17
-82 -48 -197 -29 -52 -52 -96 -51 -98 2 -2 30 4 64 13 94 24 155 -1 185 -75
21 -53 20 -78 -4 -118 -30 -50 -66 -65 -266 -118 -184 -48 -186 -49 -205 -84
-39 -74 -76 -100 -139 -100 -57 0 -107 29 -126 75 -20 49 -18 79 12 136 14 28
22 49 17 47 -4 -2 -44 -22 -88 -44 -88 -45 -224 -93 -355 -124 -129 -30 -127
-31 -69 58 61 93 169 306 169 333 0 49 -80 78 -112 42 -9 -10 -37 -61 -63
-113 -192 -385 -490 -650 -632 -561 -72 45 -121 189 -130 386 -6 107 -9 121
-29 142 -28 28 -54 29 -85 4 -21 -16 -23 -29 -30 -144 -12 -200 -57 -336 -129
-385 -140 -95 -442 170 -635 558 -26 52 -54 103 -63 113 -30 34 -95 16 -106
-29 -6 -21 6 -54 52 -148 33 -67 83 -156 111 -199 l52 -79 -43 7 c-132 21
-330 85 -443 144 -38 20 -73 37 -78 39 -4 2 4 -18 18 -44 30 -56 32 -108 5
-151 -24 -41 -67 -63 -120 -63 -56 0 -92 23 -128 84 l-31 51 -186 49 c-201 54
-235 69 -265 118 -24 40 -25 65 -4 118 30 74 91 99 185 75 34 -9 63 -15 64
-13 2 2 -21 46 -51 97 -65 114 -73 147 -48 198 33 67 125 104 182 74 16 -8 17
0 14 100 -7 180 31 376 112 582 l43 111 -39 50 c-51 67 -96 179 -120 296 -24
115 -21 338 6 432 23 85 72 179 123 237 l45 51 8 123 c45 625 376 985 1019
1108 121 23 179 19 261 -16z"/>
<path d="M1534 3131 c-50 -30 -69 -94 -69 -226 0 -160 36 -255 132 -356 96
-100 222 -139 387 -119 268 33 433 169 482 398 7 37 14 79 14 95 l0 27 74 0
75 0 7 -57 c35 -291 242 -462 563 -466 120 -2 188 18 267 76 116 85 173 204
181 379 6 121 -12 200 -54 240 l-25 23 -1001 3 c-973 2 -1003 2 -1033 -17z"/>
<path d="M2148 2321 c-27 -24 -33 -36 -33 -70 0 -34 7 -47 39 -80 109 -111
337 -159 558 -117 160 31 288 118 288 195 0 53 -49 101 -102 101 -13 0 -48
-16 -78 -35 -83 -54 -147 -70 -275 -69 -123 1 -192 20 -260 74 -50 40 -94 40
-137 1z"/>
<path d="M2660 1969 c-30 -10 -65 -18 -77 -18 -21 -1 -21 -1 -6 -68 39 -172
122 -273 223 -273 96 0 149 102 105 206 -17 41 -97 121 -151 150 -38 20 -40
20 -94 3z"/>
<path d="M2321 1935 c-65 -48 -117 -117 -126 -169 -9 -48 15 -107 55 -134 28
-19 44 -23 82 -19 86 8 154 86 198 226 32 102 31 103 -53 124 -39 9 -77 17
-83 17 -7 0 -39 -20 -73 -45z"/>
</g>
</svg>
